<svg width="182" height="57" viewBox="0 0 182 57" fill="none" xmlns="http://www.w3.org/2000/svg">
<g clip-path="url(#clip0_21_57)">
<mask id="path-1-outside-1_21_57" maskUnits="userSpaceOnUse" x="1" y="9" width="166" height="36" fill="black">
<rect fill="white" x="1" y="9" width="166" height="36"/>
<path d="M2.82959 43V11.0703H11.5269V16.3125H11.7056C12.5396 14.4857 13.7707 13.0461 15.3989 11.9937C17.0272 10.9412 19.0426 10.415 21.4453 10.415C24.96 10.415 27.6704 11.4774 29.5767 13.6021C31.5028 15.7069 32.4658 18.6357 32.4658 22.3887V43H23.7686V24.1758C23.7686 22.0908 23.2721 20.4824 22.2793 19.3506C21.3063 18.1989 19.8468 17.623 17.9009 17.623C16.6102 17.623 15.4883 17.9209 14.5352 18.5166C13.582 19.0924 12.8374 19.9066 12.3013 20.959C11.785 22.0114 11.5269 23.2425 11.5269 24.6523V43H2.82959ZM52.5112 43.6553C49.2547 43.6553 46.4549 42.9901 44.1118 41.6597C41.7687 40.3094 39.9618 38.3932 38.6909 35.9111C37.4399 33.429 36.8145 30.4902 36.8145 27.0947V27.0649C36.8145 23.6694 37.4399 20.7306 38.6909 18.2485C39.9618 15.7466 41.7389 13.8205 44.0225 12.4702C46.3258 11.1001 49.0363 10.415 52.1538 10.415C55.2713 10.415 57.9619 11.0802 60.2256 12.4106C62.5091 13.7212 64.2664 15.5778 65.4976 17.9805C66.7485 20.3831 67.374 23.1929 67.374 26.4097V29.0903H41.0737V23.6099H63.2637L59.1235 28.7329V25.397C59.1235 23.5304 58.8356 21.9717 58.2598 20.7207C57.6839 19.4499 56.8797 18.4967 55.8472 17.8613C54.8345 17.2259 53.653 16.9082 52.3027 16.9082C50.9525 16.9082 49.7511 17.2358 48.6987 17.8911C47.6662 18.5464 46.8521 19.5094 46.2563 20.7803C45.6805 22.0312 45.3926 23.5701 45.3926 25.397V28.7627C45.3926 30.5299 45.6805 32.0391 46.2563 33.29C46.8521 34.541 47.696 35.5041 48.7881 36.1792C49.8802 36.8345 51.1808 37.1621 52.6899 37.1621C53.8813 37.1621 54.9139 36.9735 55.7876 36.5962C56.6613 36.2189 57.3761 35.7424 57.9321 35.1665C58.4881 34.5907 58.8654 34.0049 59.064 33.4092L59.1235 33.2305H67.106L67.0166 33.5581C66.7783 34.7297 66.3117 35.9111 65.6167 37.1025C64.9217 38.2939 63.9785 39.3861 62.7871 40.3789C61.6156 41.3717 60.1759 42.166 58.4683 42.7617C56.7804 43.3574 54.7948 43.6553 52.5112 43.6553ZM69.2803 43L79.2881 27.0947L69.3398 11.0703H79.1392L84.8877 21.8525H85.0664L90.7256 11.0703H100.197L90.2192 26.8564L100.108 43H90.666L84.5898 31.9199H84.4111L78.4243 43H69.2803ZM114.554 43.6553C112.211 43.6553 110.215 43.1787 108.567 42.2256C106.939 41.2526 105.688 39.8726 104.814 38.0854C103.96 36.2983 103.533 34.1637 103.533 31.6816V11.0703H112.23V29.8647C112.23 31.9497 112.717 33.568 113.69 34.7197C114.683 35.8714 116.152 36.4473 118.098 36.4473C119.071 36.4473 119.945 36.2785 120.719 35.9409C121.514 35.6034 122.189 35.1268 122.745 34.5112C123.301 33.8758 123.728 33.1312 124.025 32.2773C124.323 31.4036 124.472 30.4505 124.472 29.418V11.0703H133.169V43H124.472V37.728H124.293C123.737 38.9393 123.003 39.9917 122.089 40.8853C121.196 41.7788 120.114 42.4639 118.843 42.9404C117.592 43.417 116.162 43.6553 114.554 43.6553ZM151.964 43.6553C149.025 43.6553 146.523 43.2284 144.458 42.3745C142.393 41.5207 140.775 40.3392 139.603 38.8301C138.451 37.3011 137.756 35.5339 137.518 33.5283L137.488 33.2603H145.977L146.037 33.5283C146.315 34.7793 146.94 35.7523 147.913 36.4473C148.886 37.1423 150.236 37.4897 151.964 37.4897C153.076 37.4897 154.019 37.3607 154.793 37.1025C155.568 36.8245 156.164 36.4373 156.581 35.9409C157.017 35.4445 157.236 34.8488 157.236 34.1538V34.124C157.236 33.2702 156.928 32.5851 156.312 32.0688C155.697 31.5526 154.605 31.1157 153.036 30.7583L147.615 29.6265C145.55 29.1896 143.823 28.5641 142.433 27.75C141.062 26.916 140.03 25.8934 139.335 24.6821C138.64 23.451 138.292 22.0412 138.292 20.4526V20.4229C138.292 18.3776 138.839 16.6104 139.931 15.1211C141.023 13.6318 142.572 12.4801 144.577 11.666C146.603 10.832 148.965 10.415 151.666 10.415C154.486 10.415 156.878 10.8717 158.844 11.7852C160.83 12.6787 162.349 13.89 163.401 15.4189C164.474 16.9479 165.04 18.6457 165.099 20.5122V20.8101H157.087L157.057 20.5718C156.918 19.4201 156.382 18.467 155.449 17.7124C154.535 16.938 153.274 16.5508 151.666 16.5508C150.673 16.5508 149.809 16.6898 149.075 16.9678C148.34 17.2458 147.774 17.6429 147.377 18.1592C146.98 18.6556 146.781 19.2513 146.781 19.9463V19.9761C146.781 20.5122 146.91 20.9987 147.168 21.4355C147.446 21.8525 147.903 22.2199 148.539 22.5376C149.174 22.8553 150.028 23.1333 151.1 23.3716L156.521 24.5332C159.877 25.2282 162.279 26.2707 163.729 27.6606C165.198 29.0506 165.933 30.9172 165.933 33.2603V33.29C165.933 35.375 165.337 37.1919 164.146 38.7407C162.955 40.2896 161.306 41.5008 159.202 42.3745C157.117 43.2284 154.704 43.6553 151.964 43.6553Z"/>
</mask>
<path d="M2.82959 43V11.0703H11.5269V16.3125H11.7056C12.5396 14.4857 13.7707 13.0461 15.3989 11.9937C17.0272 10.9412 19.0426 10.415 21.4453 10.415C24.96 10.415 27.6704 11.4774 29.5767 13.6021C31.5028 15.7069 32.4658 18.6357 32.4658 22.3887V43H23.7686V24.1758C23.7686 22.0908 23.2721 20.4824 22.2793 19.3506C21.3063 18.1989 19.8468 17.623 17.9009 17.623C16.6102 17.623 15.4883 17.9209 14.5352 18.5166C13.582 19.0924 12.8374 19.9066 12.3013 20.959C11.785 22.0114 11.5269 23.2425 11.5269 24.6523V43H2.82959ZM52.5112 43.6553C49.2547 43.6553 46.4549 42.9901 44.1118 41.6597C41.7687 40.3094 39.9618 38.3932 38.6909 35.9111C37.4399 33.429 36.8145 30.4902 36.8145 27.0947V27.0649C36.8145 23.6694 37.4399 20.7306 38.6909 18.2485C39.9618 15.7466 41.7389 13.8205 44.0225 12.4702C46.3258 11.1001 49.0363 10.415 52.1538 10.415C55.2713 10.415 57.9619 11.0802 60.2256 12.4106C62.5091 13.7212 64.2664 15.5778 65.4976 17.9805C66.7485 20.3831 67.374 23.1929 67.374 26.4097V29.0903H41.0737V23.6099H63.2637L59.1235 28.7329V25.397C59.1235 23.5304 58.8356 21.9717 58.2598 20.7207C57.6839 19.4499 56.8797 18.4967 55.8472 17.8613C54.8345 17.2259 53.653 16.9082 52.3027 16.9082C50.9525 16.9082 49.7511 17.2358 48.6987 17.8911C47.6662 18.5464 46.8521 19.5094 46.2563 20.7803C45.6805 22.0312 45.3926 23.5701 45.3926 25.397V28.7627C45.3926 30.5299 45.6805 32.0391 46.2563 33.29C46.8521 34.541 47.696 35.5041 48.7881 36.1792C49.8802 36.8345 51.1808 37.1621 52.6899 37.1621C53.8813 37.1621 54.9139 36.9735 55.7876 36.5962C56.6613 36.2189 57.3761 35.7424 57.9321 35.1665C58.4881 34.5907 58.8654 34.0049 59.064 33.4092L59.1235 33.2305H67.106L67.0166 33.5581C66.7783 34.7297 66.3117 35.9111 65.6167 37.1025C64.9217 38.2939 63.9785 39.3861 62.7871 40.3789C61.6156 41.3717 60.1759 42.166 58.4683 42.7617C56.7804 43.3574 54.7948 43.6553 52.5112 43.6553ZM69.2803 43L79.2881 27.0947L69.3398 11.0703H79.1392L84.8877 21.8525H85.0664L90.7256 11.0703H100.197L90.2192 26.8564L100.108 43H90.666L84.5898 31.9199H84.4111L78.4243 43H69.2803ZM114.554 43.6553C112.211 43.6553 110.215 43.1787 108.567 42.2256C106.939 41.2526 105.688 39.8726 104.814 38.0854C103.96 36.2983 103.533 34.1637 103.533 31.6816V11.0703H112.23V29.8647C112.23 31.9497 112.717 33.568 113.69 34.7197C114.683 35.8714 116.152 36.4473 118.098 36.4473C119.071 36.4473 119.945 36.2785 120.719 35.9409C121.514 35.6034 122.189 35.1268 122.745 34.5112C123.301 33.8758 123.728 33.1312 124.025 32.2773C124.323 31.4036 124.472 30.4505 124.472 29.418V11.0703H133.169V43H124.472V37.728H124.293C123.737 38.9393 123.003 39.9917 122.089 40.8853C121.196 41.7788 120.114 42.4639 118.843 42.9404C117.592 43.417 116.162 43.6553 114.554 43.6553ZM151.964 43.6553C149.025 43.6553 146.523 43.2284 144.458 42.3745C142.393 41.5207 140.775 40.3392 139.603 38.8301C138.451 37.3011 137.756 35.5339 137.518 33.5283L137.488 33.2603H145.977L146.037 33.5283C146.315 34.7793 146.94 35.7523 147.913 36.4473C148.886 37.1423 150.236 37.4897 151.964 37.4897C153.076 37.4897 154.019 37.3607 154.793 37.1025C155.568 36.8245 156.164 36.4373 156.581 35.9409C157.017 35.4445 157.236 34.8488 157.236 34.1538V34.124C157.236 33.2702 156.928 32.5851 156.312 32.0688C155.697 31.5526 154.605 31.1157 153.036 30.7583L147.615 29.6265C145.55 29.1896 143.823 28.5641 142.433 27.75C141.062 26.916 140.03 25.8934 139.335 24.6821C138.64 23.451 138.292 22.0412 138.292 20.4526V20.4229C138.292 18.3776 138.839 16.6104 139.931 15.1211C141.023 13.6318 142.572 12.4801 144.577 11.666C146.603 10.832 148.965 10.415 151.666 10.415C154.486 10.415 156.878 10.8717 158.844 11.7852C160.83 12.6787 162.349 13.89 163.401 15.4189C164.474 16.9479 165.04 18.6457 165.099 20.5122V20.8101H157.087L157.057 20.5718C156.918 19.4201 156.382 18.467 155.449 17.7124C154.535 16.938 153.274 16.5508 151.666 16.5508C150.673 16.5508 149.809 16.6898 149.075 16.9678C148.34 17.2458 147.774 17.6429 147.377 18.1592C146.98 18.6556 146.781 19.2513 146.781 19.9463V19.9761C146.781 20.5122 146.91 20.9987 147.168 21.4355C147.446 21.8525 147.903 22.2199 148.539 22.5376C149.174 22.8553 150.028 23.1333 151.1 23.3716L156.521 24.5332C159.877 25.2282 162.279 26.2707 163.729 27.6606C165.198 29.0506 165.933 30.9172 165.933 33.2603V33.29C165.933 35.375 165.337 37.1919 164.146 38.7407C162.955 40.2896 161.306 41.5008 159.202 42.3745C157.117 43.2284 154.704 43.6553 151.964 43.6553Z" fill="white"/>
<path d="M2.82959 43H1.82959V44H2.82959V43ZM2.82959 11.0703V10.0703H1.82959V11.0703H2.82959ZM11.5269 11.0703H12.5269V10.0703H11.5269V11.0703ZM11.5269 16.3125H10.5269V17.3125H11.5269V16.3125ZM11.7056 16.3125V17.3125H12.3483L12.6153 16.7278L11.7056 16.3125ZM15.3989 11.9937L14.8561 11.1538L15.3989 11.9937ZM29.5767 13.6021L28.8323 14.2699L28.8389 14.2771L29.5767 13.6021ZM32.4658 43V44H33.4658V43H32.4658ZM23.7686 43H22.7686V44H23.7686V43ZM22.2793 19.3506L21.5154 19.9959L21.5214 20.003L21.5275 20.01L22.2793 19.3506ZM14.5352 18.5166L15.0523 19.3725L15.0587 19.3686L15.0652 19.3646L14.5352 18.5166ZM12.3013 20.959L11.4102 20.5051L11.4068 20.5118L11.4035 20.5186L12.3013 20.959ZM11.5269 43V44H12.5269V43H11.5269ZM3.82959 43V11.0703H1.82959V43H3.82959ZM2.82959 12.0703H11.5269V10.0703H2.82959V12.0703ZM10.5269 11.0703V16.3125H12.5269V11.0703H10.5269ZM11.5269 17.3125H11.7056V15.3125H11.5269V17.3125ZM12.6153 16.7278C13.373 15.068 14.4797 13.7785 15.9418 12.8335L14.8561 11.1538C13.0616 12.3137 11.7061 13.9033 10.7959 15.8972L12.6153 16.7278ZM15.9418 12.8335C17.3734 11.9081 19.1891 11.415 21.4453 11.415V9.41504C18.8962 9.41504 16.6809 9.97435 14.8561 11.1538L15.9418 12.8335ZM21.4453 11.415C24.7469 11.415 27.1585 12.4042 28.8323 14.2699L30.321 12.9342C28.1823 10.5505 25.173 9.41504 21.4453 9.41504V11.415ZM28.8389 14.2771C30.5488 16.1456 31.4658 18.8049 31.4658 22.3887H33.4658C33.4658 18.4666 32.4568 15.2681 30.3144 12.927L28.8389 14.2771ZM31.4658 22.3887V43H33.4658V22.3887H31.4658ZM32.4658 42H23.7686V44H32.4658V42ZM24.7686 43V24.1758H22.7686V43H24.7686ZM24.7686 24.1758C24.7686 21.9415 24.2363 20.0651 23.0311 18.6911L21.5275 20.01C22.308 20.8997 22.7686 22.2401 22.7686 24.1758H24.7686ZM23.0432 18.7052C21.8279 17.2668 20.0493 16.623 17.9009 16.623V18.623C19.6444 18.623 20.7847 19.131 21.5154 19.9959L23.0432 18.7052ZM17.9009 16.623C16.4512 16.623 15.1397 16.9595 14.0052 17.6686L15.0652 19.3646C15.8369 18.8823 16.7692 18.623 17.9009 18.623V16.623ZM14.018 17.6607C12.8954 18.339 12.0257 19.2969 11.4102 20.5051L13.1923 21.4129C13.6491 20.5162 14.2687 19.8459 15.0523 19.3725L14.018 17.6607ZM11.4035 20.5186C10.8077 21.7331 10.5269 23.1204 10.5269 24.6523H12.5269C12.5269 23.3646 12.7623 22.2897 13.1991 21.3994L11.4035 20.5186ZM10.5269 24.6523V43H12.5269V24.6523H10.5269ZM11.5269 42H2.82959V44H11.5269V42ZM44.1118 41.6597L43.6125 42.5261L43.6181 42.5293L44.1118 41.6597ZM38.6909 35.9111L37.7979 36.3612L37.8008 36.3669L38.6909 35.9111ZM38.6909 18.2485L37.7993 17.7957L37.7979 17.7985L38.6909 18.2485ZM44.0225 12.4702L44.5314 13.331L44.5337 13.3297L44.0225 12.4702ZM60.2256 12.4106L59.7189 13.2728L59.7278 13.278L60.2256 12.4106ZM65.4976 17.9805L64.6076 18.4365L64.6106 18.4423L65.4976 17.9805ZM67.374 29.0903V30.0903H68.374V29.0903H67.374ZM41.0737 29.0903H40.0737V30.0903H41.0737V29.0903ZM41.0737 23.6099V22.6099H40.0737V23.6099H41.0737ZM63.2637 23.6099L64.0414 24.2384L65.3575 22.6099H63.2637V23.6099ZM59.1235 28.7329H58.1235V31.5613L59.9013 29.3615L59.1235 28.7329ZM58.2598 20.7207L57.3489 21.1334L57.3514 21.1388L58.2598 20.7207ZM55.8472 17.8613L55.3157 18.7084L55.3231 18.713L55.8472 17.8613ZM48.6987 17.8911L48.1702 17.0422L48.1629 17.0468L48.6987 17.8911ZM46.2563 20.7803L45.3509 20.3558L45.348 20.3621L46.2563 20.7803ZM46.2563 33.29L45.3479 33.7082L45.3535 33.72L46.2563 33.29ZM48.7881 36.1792L48.2622 37.0299L48.2736 37.0367L48.7881 36.1792ZM57.9321 35.1665L57.2127 34.4719L57.2127 34.4719L57.9321 35.1665ZM59.064 33.4092L58.1153 33.093L59.064 33.4092ZM59.1235 33.2305V32.2305H58.4028L58.1749 32.9142L59.1235 33.2305ZM67.106 33.2305L68.0707 33.4936L68.4152 32.2305H67.106V33.2305ZM67.0166 33.5581L66.0518 33.295L66.0432 33.3266L66.0367 33.3588L67.0166 33.5581ZM65.6167 37.1025L66.4805 37.6064L65.6167 37.1025ZM62.7871 40.3789L62.1469 39.6107L62.1406 39.616L62.7871 40.3789ZM58.4683 42.7617L58.1389 41.8175L58.1354 41.8187L58.4683 42.7617ZM52.5112 42.6553C49.3918 42.6553 46.7697 42.0188 44.6056 40.7901L43.6181 42.5293C46.1402 43.9613 49.1176 44.6553 52.5112 44.6553V42.6553ZM44.6111 40.7932C42.4406 39.5424 40.7668 37.7714 39.581 35.4554L37.8008 36.3669C39.1567 39.015 41.0968 41.0764 43.6125 42.5261L44.6111 40.7932ZM39.5839 35.4611C38.4172 33.1461 37.8145 30.368 37.8145 27.0947H35.8145C35.8145 30.6124 36.4627 33.7119 37.7979 36.3612L39.5839 35.4611ZM37.8145 27.0947V27.0649H35.8145V27.0947H37.8145ZM37.8145 27.0649C37.8145 23.7916 38.4172 21.0135 39.5839 18.6986L37.7979 17.7985C36.4627 20.4477 35.8145 23.5472 35.8145 27.0649H37.8145ZM39.5825 18.7014C40.7724 16.3588 42.4213 14.5787 44.5314 13.331L43.5135 11.6094C41.0566 13.0622 39.1511 15.1344 37.7993 17.7957L39.5825 18.7014ZM44.5337 13.3297C46.6587 12.0656 49.1865 11.415 52.1538 11.415V9.41504C48.8861 9.41504 45.993 10.1345 43.5112 11.6108L44.5337 13.3297ZM52.1538 11.415C55.1267 11.415 57.6354 12.0483 59.7189 13.2728L60.7323 11.5485C58.2884 10.1122 55.4159 9.41504 52.1538 9.41504V11.415ZM59.7278 13.278C61.8391 14.4897 63.4623 16.2013 64.6076 18.4365L66.3875 17.5245C65.0706 14.9543 63.1791 12.9527 60.7233 11.5433L59.7278 13.278ZM64.6106 18.4423C65.7746 20.6779 66.374 23.3236 66.374 26.4097H68.374C68.374 23.0621 67.7225 20.0884 66.3845 17.5187L64.6106 18.4423ZM66.374 26.4097V29.0903H68.374V26.4097H66.374ZM67.374 28.0903H41.0737V30.0903H67.374V28.0903ZM42.0737 29.0903V23.6099H40.0737V29.0903H42.0737ZM41.0737 24.6099H63.2637V22.6099H41.0737V24.6099ZM62.4859 22.9813L58.3458 28.1044L59.9013 29.3615L64.0414 24.2384L62.4859 22.9813ZM60.1235 28.7329V25.397H58.1235V28.7329H60.1235ZM60.1235 25.397C60.1235 23.4346 59.8218 21.7225 59.1681 20.3026L57.3514 21.1388C57.8494 22.2208 58.1235 23.6263 58.1235 25.397H60.1235ZM59.1706 20.308C58.5253 18.8837 57.5982 17.7647 56.3713 17.0097L55.3231 18.713C56.1613 19.2288 56.8426 20.016 57.3489 21.1334L59.1706 20.308ZM56.3787 17.0143C55.1868 16.2664 53.816 15.9082 52.3027 15.9082V17.9082C53.49 17.9082 54.4822 18.1854 55.3157 18.7084L56.3787 17.0143ZM52.3027 15.9082C50.7829 15.9082 49.3952 16.2794 48.1702 17.0422L49.2273 18.74C50.107 18.1922 51.122 17.9082 52.3027 17.9082V15.9082ZM48.1629 17.0468C46.947 17.8184 46.0151 18.9388 45.3509 20.3558L47.1618 21.2047C47.689 20.0801 48.3853 19.2744 49.2346 18.7354L48.1629 17.0468ZM45.348 20.3621C44.6954 21.7797 44.3926 23.4707 44.3926 25.397H46.3926C46.3926 23.6696 46.6656 22.2828 47.1647 21.1984L45.348 20.3621ZM44.3926 25.397V28.7627H46.3926V25.397H44.3926ZM44.3926 28.7627C44.3926 30.6349 44.6972 32.2945 45.348 33.7082L47.1647 32.8719C46.6638 31.7837 46.3926 30.425 46.3926 28.7627H44.3926ZM45.3535 33.72C46.025 35.1302 46.9936 36.2456 48.2623 37.0298L49.3139 35.3286C48.3983 34.7626 47.6791 33.9519 47.1592 32.8601L45.3535 33.72ZM48.2736 37.0367C49.5478 37.8012 51.0334 38.1621 52.6899 38.1621V36.1621C51.3283 36.1621 50.2127 35.8678 49.3026 35.3217L48.2736 37.0367ZM52.6899 38.1621C53.9845 38.1621 55.1579 37.9574 56.184 37.5143L55.3912 35.6781C54.6699 35.9896 53.7782 36.1621 52.6899 36.1621V38.1621ZM56.184 37.5143C57.1566 37.0943 57.9881 36.5482 58.6515 35.8611L57.2127 34.4719C56.7642 34.9365 56.166 35.3435 55.3912 35.6781L56.184 37.5143ZM58.6515 35.8611C59.2837 35.2064 59.7557 34.4961 60.0126 33.7254L58.1153 33.093C57.9751 33.5136 57.6926 33.9749 57.2127 34.4719L58.6515 35.8611ZM60.0126 33.7254L60.0722 33.5467L58.1749 32.9142L58.1153 33.093L60.0126 33.7254ZM59.1235 34.2305H67.106V32.2305H59.1235V34.2305ZM66.1412 32.9674L66.0518 33.295L67.9814 33.8212L68.0707 33.4936L66.1412 32.9674ZM66.0367 33.3588C65.8232 34.4081 65.4011 35.4875 64.7529 36.5987L66.4805 37.6064C67.2223 36.3348 67.7334 35.0512 67.9965 33.7574L66.0367 33.3588ZM64.7529 36.5987C64.1233 37.6779 63.26 38.6831 62.1469 39.6107L63.4273 41.1471C64.697 40.089 65.7201 38.9099 66.4805 37.6064L64.7529 36.5987ZM62.1406 39.616C61.0778 40.5167 59.7508 41.2552 58.1389 41.8175L58.7976 43.7059C60.6011 43.0768 62.1533 42.2268 63.4336 41.1418L62.1406 39.616ZM58.1354 41.8187C56.5794 42.3679 54.7112 42.6553 52.5112 42.6553V44.6553C54.8784 44.6553 56.9815 44.3469 58.8011 43.7047L58.1354 41.8187ZM69.2803 43L68.4339 42.4674L67.4696 44H69.2803V43ZM79.2881 27.0947L80.1345 27.6273L80.4673 27.0983L80.1377 26.5673L79.2881 27.0947ZM69.3398 11.0703V10.0703H67.542L68.4903 11.5978L69.3398 11.0703ZM79.1392 11.0703L80.0216 10.5999L79.7393 10.0703H79.1392V11.0703ZM84.8877 21.8525L84.0053 22.323L84.2876 22.8525H84.8877V21.8525ZM85.0664 21.8525V22.8525H85.6709L85.9519 22.3173L85.0664 21.8525ZM90.7256 11.0703V10.0703H90.1211L89.8401 10.6056L90.7256 11.0703ZM100.197 11.0703L101.043 11.6046L102.012 10.0703H100.197V11.0703ZM90.2192 26.8564L89.3739 26.3222L89.0415 26.8482L89.3665 27.3788L90.2192 26.8564ZM100.108 43V44H101.893L100.961 42.4777L100.108 43ZM90.666 43L89.7892 43.4808L90.0739 44H90.666V43ZM84.5898 31.9199L85.4667 31.4391L85.182 30.9199H84.5898V31.9199ZM84.4111 31.9199V30.9199H83.8148L83.5313 31.4446L84.4111 31.9199ZM78.4243 43V44H79.0206L79.3041 43.4754L78.4243 43ZM70.1267 43.5326L80.1345 27.6273L78.4417 26.5622L68.4339 42.4674L70.1267 43.5326ZM80.1377 26.5673L70.1894 10.5429L68.4903 11.5978L78.4385 27.6222L80.1377 26.5673ZM69.3398 12.0703H79.1392V10.0703H69.3398V12.0703ZM78.2567 11.5408L84.0053 22.323L85.7701 21.3821L80.0216 10.5999L78.2567 11.5408ZM84.8877 22.8525H85.0664V20.8525H84.8877V22.8525ZM85.9519 22.3173L91.611 11.5351L89.8401 10.6056L84.181 21.3878L85.9519 22.3173ZM90.7256 12.0703H100.197V10.0703H90.7256V12.0703ZM99.352 10.536L89.3739 26.3222L91.0645 27.3907L101.043 11.6046L99.352 10.536ZM89.3665 27.3788L99.2552 43.5223L100.961 42.4777L91.072 26.3341L89.3665 27.3788ZM100.108 42H90.666V44H100.108V42ZM91.5428 42.5192L85.4667 31.4391L83.713 32.4008L89.7892 43.4808L91.5428 42.5192ZM84.5898 30.9199H84.4111V32.9199H84.5898V30.9199ZM83.5313 31.4446L77.5445 42.5246L79.3041 43.4754L85.2909 32.3953L83.5313 31.4446ZM78.4243 42H69.2803V44H78.4243V42ZM108.567 42.2256L108.054 43.084L108.06 43.0877L108.066 43.0913L108.567 42.2256ZM104.814 38.0854L103.912 38.5166L103.916 38.5247L104.814 38.0854ZM103.533 11.0703V10.0703H102.533V11.0703H103.533ZM112.23 11.0703H113.23V10.0703H112.23V11.0703ZM113.69 34.7197L112.926 35.3651L112.933 35.3727L113.69 34.7197ZM120.719 35.9409L120.328 35.0205L120.32 35.0242L120.719 35.9409ZM122.745 34.5112L123.487 35.1815L123.492 35.1757L123.497 35.1697L122.745 34.5112ZM124.025 32.2773L124.97 32.6067L124.972 32.6L124.025 32.2773ZM124.472 11.0703V10.0703H123.472V11.0703H124.472ZM133.169 11.0703H134.169V10.0703H133.169V11.0703ZM133.169 43V44H134.169V43H133.169ZM124.472 43H123.472V44H124.472V43ZM124.472 37.728H125.472V36.728H124.472V37.728ZM124.293 37.728V36.728H123.652L123.385 37.3109L124.293 37.728ZM122.089 40.8853L121.39 40.1704L121.382 40.1781L122.089 40.8853ZM118.843 42.9404L118.492 42.0041L118.487 42.0059L118.843 42.9404ZM114.554 42.6553C112.346 42.6553 110.532 42.2069 109.068 41.3599L108.066 43.0913C109.898 44.1506 112.075 44.6553 114.554 44.6553V42.6553ZM109.08 41.3672C107.626 40.4986 106.505 39.2681 105.712 37.6462L103.916 38.5247C104.87 40.477 106.251 42.0066 108.054 43.084L109.08 41.3672ZM105.716 37.6543C104.941 36.0315 104.533 34.0513 104.533 31.6816H102.533C102.533 34.2762 102.979 36.5652 103.912 38.5165L105.716 37.6543ZM104.533 31.6816V11.0703H102.533V31.6816H104.533ZM103.533 12.0703H112.23V10.0703H103.533V12.0703ZM111.23 11.0703V29.8647H113.23V11.0703H111.23ZM111.23 29.8647C111.23 32.0959 111.751 33.9744 112.926 35.3651L114.454 34.0744C113.683 33.1617 113.23 31.8035 113.23 29.8647H111.23ZM112.933 35.3727C114.166 36.8033 115.949 37.4473 118.098 37.4473V35.4473C116.356 35.4473 115.2 34.9396 114.447 34.0668L112.933 35.3727ZM118.098 37.4473C119.188 37.4473 120.201 37.2578 121.119 36.8576L120.32 35.0242C119.689 35.2991 118.954 35.4473 118.098 35.4473V37.4473ZM121.11 36.8612C122.033 36.4692 122.829 35.9093 123.487 35.1815L122.003 33.8409C121.548 34.3443 120.994 34.7375 120.328 35.0206L121.11 36.8612ZM123.497 35.1697C124.143 34.4312 124.633 33.5729 124.97 32.6067L123.081 31.948C122.823 32.6895 122.458 33.3204 121.992 33.8527L123.497 35.1697ZM124.972 32.6C125.309 31.6109 125.472 30.5474 125.472 29.418H123.472C123.472 30.3536 123.337 31.1964 123.079 31.9547L124.972 32.6ZM125.472 29.418V11.0703H123.472V29.418H125.472ZM124.472 12.0703H133.169V10.0703H124.472V12.0703ZM132.169 11.0703V43H134.169V11.0703H132.169ZM133.169 42H124.472V44H133.169V42ZM125.472 43V37.728H123.472V43H125.472ZM124.472 36.728H124.293V38.728H124.472V36.728ZM123.385 37.3109C122.877 38.4158 122.212 39.3661 121.39 40.1704L122.789 41.6001C123.793 40.6173 124.597 39.4628 125.202 38.1452L123.385 37.3109ZM121.382 40.1781C120.597 40.9634 119.639 41.5739 118.492 42.0041L119.194 43.8768C120.588 43.3538 121.795 42.5942 122.796 41.5924L121.382 40.1781ZM118.487 42.0059C117.37 42.4314 116.064 42.6553 114.554 42.6553V44.6553C116.26 44.6553 117.814 44.4025 119.199 43.8749L118.487 42.0059ZM139.603 38.8301L138.804 39.4317L138.809 39.4375L138.813 39.4433L139.603 38.8301ZM137.518 33.5283L136.524 33.6388L136.525 33.6463L137.518 33.5283ZM137.488 33.2603V32.2603H136.371L136.494 33.3707L137.488 33.2603ZM145.977 33.2603L146.953 33.0433L146.779 32.2603H145.977V33.2603ZM154.793 37.1025L155.11 38.0512L155.121 38.0476L155.131 38.0437L154.793 37.1025ZM156.581 35.9409L155.83 35.2803L155.822 35.2889L155.815 35.2977L156.581 35.9409ZM153.036 30.7583L153.258 29.7833L153.249 29.7813L153.241 29.7794L153.036 30.7583ZM147.615 29.6265L147.408 30.6048L147.411 30.6054L147.615 29.6265ZM142.433 27.75L141.913 28.6042L141.92 28.6086L141.927 28.6129L142.433 27.75ZM139.335 24.6821L138.464 25.1737L138.468 25.1798L139.335 24.6821ZM144.577 11.666L144.953 12.5926L144.958 12.5907L144.577 11.666ZM158.844 11.7852L158.423 12.6921L158.434 12.6971L158.844 11.7852ZM163.401 15.4189L162.578 15.9859L162.583 15.9931L163.401 15.4189ZM165.099 20.5122H166.099V20.4963L166.099 20.4803L165.099 20.5122ZM165.099 20.8101V21.8101H166.099V20.8101H165.099ZM157.087 20.8101L156.095 20.9341L156.204 21.8101H157.087V20.8101ZM157.057 20.5718L156.064 20.6916L156.065 20.6958L157.057 20.5718ZM155.449 17.7124L154.802 18.4752L154.811 18.4827L154.82 18.49L155.449 17.7124ZM147.377 18.1592L148.158 18.7839L148.164 18.7764L148.17 18.7689L147.377 18.1592ZM147.168 21.4355L146.308 21.9443L146.321 21.9677L146.336 21.9902L147.168 21.4355ZM151.1 23.3716L150.883 24.3478L150.891 24.3494L151.1 23.3716ZM156.521 24.5332L156.311 25.511L156.318 25.5124L156.521 24.5332ZM163.729 27.6606L163.037 28.3824L163.042 28.3871L163.729 27.6606ZM159.202 42.3745L159.581 43.2999L159.585 43.2981L159.202 42.3745ZM151.964 42.6553C149.117 42.6553 146.752 42.2411 144.84 41.4504L144.076 43.2986C146.294 44.2157 148.933 44.6553 151.964 44.6553V42.6553ZM144.84 41.4504C142.908 40.6516 141.441 39.5669 140.393 38.2169L138.813 39.4433C140.108 41.1115 141.878 42.3897 144.076 43.2986L144.84 41.4504ZM140.402 38.2284C139.362 36.8485 138.73 35.2504 138.511 33.4103L136.525 33.6463C136.783 35.8173 137.54 37.7537 138.804 39.4317L140.402 38.2284ZM138.512 33.4179L138.482 33.1498L136.494 33.3707L136.524 33.6388L138.512 33.4179ZM137.488 34.2603H145.977V32.2603H137.488V34.2603ZM145.001 33.4772L145.06 33.7453L147.013 33.3114L146.953 33.0433L145.001 33.4772ZM145.06 33.7453C145.388 35.2183 146.143 36.4118 147.332 37.261L148.494 35.6335C147.737 35.0928 147.241 34.3403 147.013 33.3114L145.06 33.7453ZM147.332 37.261C148.535 38.1202 150.117 38.4897 151.964 38.4897V36.4897C150.356 36.4897 149.237 36.1643 148.494 35.6335L147.332 37.261ZM151.964 38.4897C153.147 38.4897 154.204 38.3532 155.11 38.0512L154.477 36.1539C153.834 36.3682 153.005 36.4897 151.964 36.4897V38.4897ZM155.131 38.0437C156.028 37.7218 156.789 37.2478 157.346 36.5841L155.815 35.2977C155.538 35.6269 155.108 35.9273 154.456 36.1613L155.131 38.0437ZM157.331 36.6015C157.938 35.9126 158.236 35.0785 158.236 34.1538H156.236C156.236 34.6191 156.097 34.9764 155.83 35.2803L157.331 36.6015ZM158.236 34.1538V34.124H156.236V34.1538H158.236ZM158.236 34.124C158.236 32.9957 157.813 32.0222 156.955 31.3027L155.67 32.835C156.043 33.1481 156.236 33.5447 156.236 34.124H158.236ZM156.955 31.3027C156.148 30.6254 154.856 30.1474 153.258 29.7833L152.814 31.7333C154.353 32.0841 155.246 32.4798 155.67 32.835L156.955 31.3027ZM153.241 29.7794L147.82 28.6476L147.411 30.6054L152.832 31.7372L153.241 29.7794ZM147.822 28.6481C145.831 28.227 144.212 27.6331 142.938 26.8871L141.927 28.6129C143.433 29.4951 145.269 30.1522 147.408 30.6048L147.822 28.6481ZM142.953 26.8958C141.705 26.1363 140.802 25.229 140.202 24.1845L138.468 25.1798C139.258 26.5578 140.42 27.6957 141.913 28.6042L142.953 26.8958ZM140.206 24.1905C139.606 23.1272 139.292 21.8906 139.292 20.4526H137.292C137.292 22.1917 137.674 23.7748 138.464 25.1737L140.206 24.1905ZM139.292 20.4526V20.4229H137.292V20.4526H139.292ZM139.292 20.4229C139.292 18.5663 139.784 17.0118 140.737 15.7125L139.124 14.5297C137.893 16.2089 137.292 18.1889 137.292 20.4229H139.292ZM140.737 15.7125C141.702 14.3967 143.089 13.3492 144.953 12.5926L144.201 10.7394C142.054 11.6111 140.344 12.8669 139.124 14.5297L140.737 15.7125ZM144.958 12.5907C146.838 11.8166 149.067 11.415 151.666 11.415V9.41504C148.864 9.41504 146.367 9.8475 144.196 10.7413L144.958 12.5907ZM151.666 11.415C154.382 11.415 156.622 11.8555 158.423 12.692L159.266 10.8783C157.134 9.88799 154.589 9.41504 151.666 9.41504V11.415ZM158.434 12.6971C160.282 13.5288 161.646 14.6319 162.578 15.9859L164.225 14.852C163.052 13.148 161.378 11.8287 159.255 10.8732L158.434 12.6971ZM162.583 15.9931C163.543 17.3628 164.046 18.8721 164.1 20.5441L166.099 20.4803C166.033 18.4193 165.404 16.5331 164.22 14.8448L162.583 15.9931ZM164.099 20.5122V20.8101H166.099V20.5122H164.099ZM165.099 19.8101H157.087V21.8101H165.099V19.8101ZM158.079 20.686L158.049 20.4477L156.065 20.6958L156.095 20.9341L158.079 20.686ZM158.05 20.452C157.879 19.0322 157.205 17.8466 156.077 16.9348L154.82 18.49C155.559 19.0873 155.958 19.8079 156.064 20.6916L158.05 20.452ZM156.095 16.9496C154.947 15.9764 153.43 15.5508 151.666 15.5508V17.5508C153.119 17.5508 154.123 17.8996 154.802 18.4752L156.095 16.9496ZM151.666 15.5508C150.583 15.5508 149.594 15.7021 148.721 16.0325L149.429 17.9031C150.025 17.6775 150.764 17.5508 151.666 17.5508V15.5508ZM148.721 16.0325C147.848 16.3626 147.116 16.8583 146.584 17.5495L148.17 18.7689C148.432 18.4275 148.832 18.129 149.429 17.9031L148.721 16.0325ZM146.596 17.5345C146.044 18.2251 145.781 19.0468 145.781 19.9463H147.781C147.781 19.4558 147.916 19.0861 148.158 18.7839L146.596 17.5345ZM145.781 19.9463V19.9761H147.781V19.9463H145.781ZM145.781 19.9761C145.781 20.6806 145.953 21.3445 146.308 21.9443L148.029 20.9268C147.868 20.6529 147.781 20.3438 147.781 19.9761H145.781ZM146.336 21.9902C146.743 22.6001 147.362 23.0672 148.091 23.432L148.986 21.6432C148.445 21.3726 148.15 21.105 148.001 20.8808L146.336 21.9902ZM148.091 23.432C148.828 23.8005 149.769 24.1003 150.883 24.3478L151.317 22.3954C150.286 22.1663 149.52 21.9102 148.986 21.6432L148.091 23.432ZM150.891 24.3494L156.311 25.511L156.731 23.5554L151.31 22.3938L150.891 24.3494ZM156.318 25.5124C159.605 26.1931 161.788 27.1851 163.037 28.3824L164.421 26.9389C162.771 25.3563 160.149 24.2633 156.724 23.554L156.318 25.5124ZM163.042 28.3871C164.279 29.5579 164.933 31.1445 164.933 33.2603H166.933C166.933 30.6898 166.117 28.5434 164.416 26.9342L163.042 28.3871ZM164.933 33.2603V33.29H166.933V33.2603H164.933ZM164.933 33.29C164.933 35.1702 164.401 36.7691 163.353 38.131L164.939 39.3504C166.274 37.6147 166.933 35.5798 166.933 33.29H164.933ZM163.353 38.131C162.285 39.5197 160.789 40.633 158.818 41.4509L159.585 43.2981C161.824 42.3686 163.624 41.0594 164.939 39.3504L163.353 38.131ZM158.823 41.4491C156.881 42.2443 154.601 42.6553 151.964 42.6553V44.6553C154.807 44.6553 157.352 44.2124 159.581 43.2999L158.823 41.4491Z" fill="black" mask="url(#path-1-outside-1_21_57)"/>
</g>
<defs>
<clipPath id="clip0_21_57">
<rect width="182" height="57" fill="white"/>
</clipPath>
</defs>
</svg>
